<svg width="1280" height="720" xmlns="http://www.w3.org/2000/svg" xmlns:xlink="http://www.w3.org/1999/xlink" overflow="hidden"><defs><linearGradient x1="788" y1="26" x2="788" y2="639" gradientUnits="userSpaceOnUse" spreadMethod="reflect" id="fill0"><stop offset="0" stop-color="#B3C3ED"/><stop offset="0.5" stop-color="#D2DCF5"/><stop offset="1" stop-color="#FFFFFF"/></linearGradient><clipPath id="clip1"><path d="M825.151 244.282 900.093 234.401 909.974 309.342 835.032 319.224Z" fill-rule="evenodd" clip-rule="evenodd"/></clipPath><clipPath id="clip2"><path d="M825.151 244.282 900.093 234.401 909.974 309.342 835.032 319.224Z" fill-rule="evenodd" clip-rule="evenodd"/></clipPath><clipPath id="clip3"><path d="M825.151 244.282 900.093 234.401 909.974 309.342 835.032 319.224Z" fill-rule="evenodd" clip-rule="evenodd"/></clipPath><clipPath id="clip4"><path d="M647.891 364.214 721.683 347.821 738.076 421.613 664.285 438.006Z" fill-rule="evenodd" clip-rule="evenodd"/></clipPath><clipPath id="clip5"><path d="M647.891 364.214 721.683 347.821 738.076 421.613 664.285 438.006Z" fill-rule="evenodd" clip-rule="evenodd"/></clipPath><clipPath id="clip6"><path d="M647.891 364.214 721.683 347.821 738.076 421.613 664.285 438.006Z" fill-rule="evenodd" clip-rule="evenodd"/></clipPath></defs><g><rect x="0" y="0" width="1280" height="720" fill="#FFFFFF"/><path d="M433 639 788 26 1143 639Z" fill="url(#fill0)" fill-rule="evenodd"/><g><g><g><path d="M788.009 357.296 747.959 340.305 718.109 352.969 788.009 382.625 857.91 352.969 828.059 340.305 788.009 357.296Z" fill="#7A7259"/><path d="M788.009 291.375 718.109 321.031 788.009 350.688 857.91 321.031 788.009 291.375Z" fill="#7A7259"/></g></g></g><g><g><g><path d="M860.092 545.739C864.094 548.917 867.86 554.449 870.685 560.688L836.315 560.688C839.257 554.449 842.906 548.799 846.908 545.739 848.792 544.208 849.969 541.972 849.969 539.5 849.969 537.028 848.792 534.792 846.908 533.261 838.904 527.023 831.959 511.015 830.782 499.479L876.335 499.479C875.041 511.015 868.214 527.023 860.209 533.261 858.208 534.792 857.031 537.028 857.031 539.5 857.031 541.972 858.208 544.208 860.092 545.739ZM883.28 499.479 886.458 499.479 886.458 492.417 820.542 492.417 820.542 499.479 823.602 499.479C824.897 512.545 832.43 531.614 843.377 539.5 832.43 547.386 824.779 566.455 823.602 579.521L820.542 579.521 820.542 586.583 886.458 586.583 886.458 579.521 883.28 579.521C882.103 566.455 874.452 547.386 863.505 539.5 874.452 531.614 882.103 512.545 883.28 499.479Z" fill="#7A7259"/></g></g></g><path d="M0 0 774.58 7.74394" stroke="#1E3283" stroke-width="4" stroke-miterlimit="8" stroke-dasharray="4 4" fill="none" fill-rule="evenodd" transform="matrix(-1 0 0 1 911.58 241)"/><path d="M0 0 884.038 0.000104987" stroke="#1E3283" stroke-width="4" stroke-miterlimit="8" stroke-dasharray="4 4" fill="none" fill-rule="evenodd" transform="matrix(-1 0 0 1 1021.04 432)"/><text font-family="Lato,Lato_MSFontService,sans-serif" font-weight="400" font-size="48" transform="translate(146.571 162)">LOD1: Localities</text><text font-family="Lato,Lato_MSFontService,sans-serif" font-weight="400" font-size="48" transform="translate(146.571 355)">LOD2:</text><text font-family="Lato,Lato_MSFontService,sans-serif" font-weight="400" font-size="48" transform="translate(295.071 355)">Assemblage</text><text font-family="Lato,Lato_MSFontService,sans-serif" font-weight="400" font-size="48" transform="translate(547.071 355)">s</text><text font-family="Lato,Lato_MSFontService,sans-serif" font-weight="400" font-size="48" transform="translate(146.571 520)">LOD3:</text><text font-family="Lato,Lato_MSFontService,sans-serif" font-weight="400" font-size="48" transform="translate(295.071 520)">Date</text><text font-family="Lato,Lato_MSFontService,sans-serif" font-weight="400" font-size="48" transform="translate(398.571 520)">s &amp;</text><text font-family="Lato,Lato_MSFontService,sans-serif" font-weight="400" font-size="48" transform="translate(146.571 578)">Publications</text><g clip-path="url(#clip1)"><g clip-path="url(#clip2)"><g clip-path="url(#clip3)"><path d="M865.427 278.682C865.881 282.131 863.454 285.296 860.005 285.751 856.556 286.206 853.391 283.778 852.936 280.329 852.481 276.88 854.909 273.715 858.358 273.26 861.807 272.806 864.972 275.233 865.427 278.682Z" fill="#7A7259"/><path d="M882.601 276.418C883.055 279.867 880.628 283.032 877.179 283.486 873.73 283.941 870.565 281.514 870.11 278.065 869.656 274.615 872.083 271.451 875.532 270.996 878.981 270.541 882.146 272.969 882.601 276.418Z" fill="#7A7259"/><path d="M872.421 288.784C872.979 289.485 872.862 290.505 872.161 291.063 871.932 291.245 871.658 291.361 871.368 291.4L867.668 291.888C866.78 292.003 865.967 291.375 865.852 290.487 865.815 290.197 865.857 289.902 865.973 289.634L867.418 286.314C867.771 285.496 868.721 285.118 869.539 285.471 869.785 285.577 870 285.742 870.166 285.952Z" fill="#7A7259"/><path d="M863.548 246.367C850.207 248.126 840.892 261.267 842.797 275.709 843.551 281.431 845.798 285.821 850.272 290.243L850.787 294.146C851.204 297.762 854.32 300.457 857.958 300.348L858.782 306.593C858.952 307.887 860.139 308.797 861.433 308.627L881.729 305.95C883.023 305.78 883.933 304.593 883.762 303.3L882.935 297.023C886.477 296.185 888.789 292.775 888.254 289.174L887.739 285.271C890.915 279.841 891.947 275.019 891.192 269.297 889.292 254.886 876.89 244.608 863.548 246.367ZM883.281 283.563C882.997 284.025 882.881 284.571 882.952 285.108L883.57 289.792C883.767 291.05 882.906 292.231 881.647 292.428 881.611 292.433 881.574 292.438 881.537 292.442L879.975 292.648C878.682 292.819 877.772 294.005 877.942 295.299L878.766 301.544 875.643 301.956 875.026 297.272 871.903 297.684 872.521 302.367 869.398 302.779 868.78 298.095 865.658 298.507 866.275 303.191 863.153 303.603 862.329 297.357C862.159 296.064 860.972 295.154 859.679 295.324L858.117 295.53C856.859 295.727 855.678 294.866 855.481 293.608 855.475 293.571 855.471 293.534 855.467 293.497L854.849 288.813C854.778 288.276 854.525 287.779 854.131 287.407 850.047 283.537 848.124 279.971 847.48 275.092 845.92 263.257 853.401 252.47 864.166 251.051 874.931 249.631 884.952 258.111 886.513 269.945 887.156 274.824 886.222 278.768 883.281 283.563Z" fill="#7A7259"/></g></g></g><g><g><g><path d="M54.25 17.375 55.007 9.30469 49.6555 12.3625C49.2301 12.6059 48.9675 13.0584 48.9672 13.5484L48.9672 16.0391Z" fill="#7A7259" transform="matrix(1.01333 0 0 1 661 245)"/><path d="M53.9547 20.5234 48.9672 19.2625 48.9672 22.2516 47.1758 24.0437C47.1758 24.0437 34.6758 35.8977 32.1867 38.3875 29.6977 40.8773 17.1133 54.1062 17.1133 54.1062L2.30469 68.9141C1.69828 69.4905 1.44519 70.3466 1.64062 71.1602 2.075 72.6781 3.58047 71.4586 4.6 72.8008 5.29698 73.5875 6.49978 73.6602 7.28652 72.9633 7.35653 72.9012 7.42188 72.8341 7.48203 72.7625 7.48203 72.7625 45.3367 34.2562 47.5781 32.0148L52.3539 27.2391 53.3297 27.1969Z" fill="#7A7259" transform="matrix(1.01333 0 0 1 661 245)"/><path d="M57.0211 21.2984 56.4844 27.0602 60.4219 26.8883C60.959 26.8648 61.4324 26.5284 61.6312 26.0289L62.9227 22.7992 62.9289 22.7891Z" fill="#7A7259" transform="matrix(1.01333 0 0 1 661 245)"/><path d="M71.2211 2.37812 66.3203 3.46719C66.2042 3.49277 66.092 3.53377 65.9867 3.58906L58.307 7.58203 57.3164 18.15 65.8977 20.3195 66.1477 20.1313C66.4288 19.9207 66.618 19.6098 66.6758 19.2633L67.4312 14.732C67.4547 14.5915 67.5 14.4554 67.5656 14.3289L72.7344 4.33906C73.0811 3.66878 72.8188 2.84434 72.1485 2.49762 71.8631 2.34996 71.5347 2.30765 71.2211 2.37812Z" fill="#7A7259" transform="matrix(1.01333 0 0 1 661 245)"/></g></g></g><g><g><g><path d="M26.5417 11.6667C17.5 11.6667 10.2083 18.9583 10.2083 28 10.2083 30.8583 10.9667 33.5417 12.25 35.875 13.475 34.5917 14.8167 33.3083 16.275 31.9083 19.95 28.4667 24.2667 24.9667 27.8833 22.4 28.1167 22.225 28.35 22.1083 28.6417 22.1083 29.2833 22.1083 29.8083 22.6333 29.8083 23.275 29.8083 23.6833 29.6333 23.975 29.3417 24.2083L29.3417 24.2083C24.15 27.9417 17.2667 33.7167 12.6 38.9667 12.6 38.9667 11.9583 39.6667 11.6667 40.0167L11.6667 40.0167C9.04167 43.1083 7.29167 45.9083 7.29167 47.8917L10.7917 47.8917C10.7917 46.6083 12.8333 43.8083 15.925 40.4833 18.7833 42.9333 22.4583 44.3917 26.5417 44.3917 29.4583 44.3917 32.2583 43.6333 34.65 42.2333L34.65 42.2333C47.1333 35.2917 48.7083 22.5167 48.7083 8.16667 48.7083 8.16667 35.1167 11.9 26.5417 11.6667Z" fill="#7A7259" transform="matrix(1.01786 0 0 1 848 368)"/></g></g></g><g clip-path="url(#clip4)"><g clip-path="url(#clip5)"><g clip-path="url(#clip6)"><path d="M676.519 416.736C676.99 418.859 679.093 420.197 681.216 419.726 683.339 419.254 684.677 417.151 684.206 415.028L682.895 409.13 675.526 412.267Z" fill="#7A7259"/><path d="M684.668 376.138C683.88 376.228 683.088 376.269 682.295 376.262 678.717 376.261 675.159 376.792 671.738 377.837 658.938 381.626 655.365 390.519 657.369 399.539L658.154 403.071 660.666 400.995 660.852 400.834C661.522 403.268 662.861 405.466 664.716 407.178L667.258 418.62C667.673 420.647 669.55 422.036 671.61 421.84 673.768 421.58 675.307 419.619 675.047 417.46 675.031 417.332 675.01 417.204 674.982 417.078L673.703 411.323 691.389 403.796 693.393 412.814C693.808 414.842 695.684 416.23 697.744 416.034 699.903 415.774 701.442 413.813 701.181 411.654 701.166 411.526 701.144 411.398 701.116 411.272L698.725 400.51C698.705 400.42 698.666 400.341 698.64 400.254L700.121 399.53 702.617 410.765C703.031 412.792 704.908 414.181 706.968 413.985 709.127 413.725 710.666 411.764 710.405 409.605 710.39 409.477 710.368 409.349 710.34 409.223L707.252 395.323 709.346 391.723C711.769 387.558 715.766 384.542 720.436 383.354L721.059 383.196C724.668 382.394 726.943 378.819 726.142 375.211L726.142 375.211C725.975 374.459 725.318 373.918 724.549 373.897L720.78 373.798 720.744 373.634C720.591 372.942 720.135 372.356 719.502 372.038 716.873 370.709 713.977 369.995 711.031 369.949 710.298 368.235 708.314 367.44 706.6 368.174 705.235 368.758 704.412 370.165 704.572 371.64L697.523 373.313 685.005 376.094Z" fill="#7A7259"/></g></g></g><g><g><g><path d="M75.5 15.7292C42.4688 15.7292 15.7292 42.4688 15.7292 75.5 15.7292 108.531 42.4688 135.271 75.5 135.271 108.531 135.271 135.271 108.531 135.271 75.5 135.271 42.4688 108.531 15.7292 75.5 15.7292ZM75.5 128.979C46.0865 128.979 22.0208 104.914 22.0208 75.5 22.0208 46.0865 46.0865 22.0208 75.5 22.0208 83.2073 22.0208 90.4427 23.5938 97.049 26.5823L92.0156 30.6719C91.3865 31.1437 90.7573 31.4583 89.9708 31.4583L86.9823 31.4583C86.6677 31.4583 86.1958 31.4583 85.8812 31.301 85.8812 31.301 78.174 26.7396 73.7698 26.7396 69.5229 26.7396 62.6021 29.4135 59.6135 31.4583 55.0521 34.4469 59.9281 35.8625 61.0292 36.1771 61.1865 36.1771 61.3438 36.1771 61.3438 36.1771L65.7479 36.1771C66.849 36.1771 67.7927 35.7052 68.4219 34.7615L70.1521 32.0875C70.4667 31.6156 70.9385 31.4583 71.4104 31.4583L73.9271 31.4583 70.624 36.9635C69.8375 38.3792 68.2646 39.3229 66.5344 39.3229L62.2875 39.3229C61.6583 39.3229 61.0292 39.4802 60.5573 39.7948L56.625 42.4688 53.4792 42.4688C52.5354 42.4688 51.9062 43.0979 51.9062 44.0417L51.9062 45.6146C51.9062 46.5583 51.2771 47.1875 50.3333 47.1875L48.9177 47.1875C47.8167 47.1875 46.8729 47.6594 46.2437 48.6031L44.3563 51.5917C44.199 51.9062 44.0417 52.2208 44.0417 52.5354L44.0417 53.4792C44.0417 54.4229 44.6708 55.0521 45.6146 55.0521L51.2771 55.0521C51.749 55.0521 52.0635 54.8948 52.3781 54.5802L57.2542 49.7042C57.8833 49.075 58.6698 48.7604 59.4562 48.7604L60.0854 48.7604C60.8719 48.7604 61.501 49.2323 61.6583 50.0187L62.6021 53.951C62.7594 54.5802 63.3885 55.2094 64.175 55.2094L64.4896 55.2094C65.4333 55.2094 66.0625 54.5802 66.0625 53.6365L66.0625 49.5469C66.0625 49.075 66.2198 48.7604 66.5344 48.4458L67.6354 47.1875 68.8937 50.8052C69.051 51.4344 69.6802 51.9062 70.3094 51.9062L71.725 51.9062C72.1969 51.9062 72.5115 51.749 72.826 51.4344L73.4552 50.8052C73.7698 50.4906 74.0844 50.3333 74.5563 50.3333L75.5 50.3333C76.4437 50.3333 77.0729 50.9625 77.0729 51.9062L77.0729 53.4792C77.0729 54.4229 77.7021 55.0521 78.6458 55.0521L84.3083 55.0521C85.4094 55.0521 86.1958 56.1531 85.724 57.0969L85.2521 58.5125C84.9375 59.299 84.3083 59.7708 83.5219 59.6135L75.9719 58.3552C75.6573 58.3552 75.1854 58.3552 74.8708 58.3552L68.4219 59.6135C67.7927 59.7708 67.3208 59.6135 66.6917 59.4562 64.6469 58.6698 58.9844 56.625 56.625 56.625 37.9073 56.625 37.75 69.2083 37.75 73.9271 37.75 80.2188 41.3677 84.9375 47.1875 84.9375 54.1083 84.9375 62.9167 84.6229 62.9167 97.5208L62.9167 107.273C62.9167 109.16 63.5458 110.891 64.8042 112.306L69.3656 117.811C70.3094 118.912 71.5677 119.542 72.9833 119.542L76.7583 119.542C78.0167 119.542 79.275 119.07 80.0615 118.126L83.8365 114.351C84.6229 113.565 85.0948 112.778 85.5667 111.834L88.7125 105.385C89.1844 104.284 89.499 103.026 89.499 101.925L89.499 94.6896C89.499 93.4313 89.9708 92.1729 90.9146 91.3865L99.251 83.05C99.8802 82.4208 99.8802 81.1625 99.0938 80.6906 99.0938 80.6906 89.6562 75.3427 84.4656 65.276 83.9938 64.175 84.6229 62.9167 85.8812 62.9167L86.5104 62.9167 95.476 74.5563C96.5771 75.9719 98.6219 76.1292 100.037 75.0281L105.228 70.624C106.015 69.9948 106.015 68.5792 105.071 68.1073L100.352 65.276C99.7229 64.8042 99.4083 64.0177 99.7229 63.2313L99.8802 62.9167C100.352 62.1302 101.296 61.8156 102.082 62.2875L107.745 65.7479C108.217 66.0625 108.846 66.2198 109.318 66.2198L111.048 66.2198C112.306 66.2198 113.407 67.0062 113.879 68.1073L118.441 78.4885C118.912 79.5896 120.014 80.376 121.272 80.376L121.272 80.376C122.688 80.376 123.946 79.1177 123.946 77.7021L123.946 73.2979C123.946 72.826 124.103 72.3542 124.575 72.0396L128.193 69.2083C128.507 71.2531 128.665 73.4552 128.665 75.6573 128.979 104.914 104.914 128.979 75.5 128.979Z" fill="#7A7259" transform="matrix(1 0 0 1.00662 712 87)"/><path d="M47.1875 42.4688 47.1875 44.0417 48.7604 44.0417C49.7042 44.0417 50.3333 43.4125 50.3333 42.4688L50.3333 40.8958 51.9062 40.8958 51.9062 38.3792C51.9062 37.9073 51.749 37.5927 51.4344 37.2781L49.8615 35.7052C49.2323 35.076 48.2885 35.076 47.6594 35.7052L45.1427 38.2219C44.5135 38.851 44.5135 39.7948 45.1427 40.424L47.1875 42.4688Z" fill="#7A7259" transform="matrix(1 0 0 1.00662 712 87)"/></g></g></g><g><g><g><path d="M813.5 128.292C811.99 128.292 810.781 127.083 810.781 125.573 810.781 124.062 811.99 122.854 813.5 122.854 815.01 122.854 816.219 124.062 816.219 125.573 816.219 127.083 815.01 128.292 813.5 128.292ZM813.5 119.229C811.416 119.229 809.452 120.256 808.274 122.008 807.096 123.73 806.854 125.935 807.609 127.899L810.479 134.243 812.956 139.439C813.047 139.65 813.258 139.771 813.5 139.771 813.742 139.771 813.953 139.65 814.044 139.439L816.521 134.243 819.391 127.899C820.146 125.935 819.904 123.73 818.726 122.008 817.548 120.256 815.584 119.229 813.5 119.229Z" fill="#FFFFFF"/></g></g></g><g><g><g><path d="M14.5 13.2917C12.9896 13.2917 11.7812 12.0833 11.7812 10.5729 11.7812 9.0625 12.9896 7.85417 14.5 7.85417 16.0104 7.85417 17.2188 9.0625 17.2188 10.5729 17.2188 12.0833 16.0104 13.2917 14.5 13.2917ZM14.5 4.22917C12.4156 4.22917 10.4521 5.25625 9.27396 7.00833 8.09583 8.73021 7.85417 10.9354 8.60938 12.899L11.4792 19.2427 13.9563 24.4385C14.0469 24.65 14.2583 24.7708 14.5 24.7708 14.7417 24.7708 14.9531 24.65 15.0437 24.4385L17.5208 19.2427 20.3906 12.899C21.1458 10.9354 20.9042 8.73021 19.726 7.00833 18.5479 5.25625 16.5844 4.22917 14.5 4.22917Z" fill="#FFFFFF" transform="matrix(1.03448 0 0 1 777 177)"/></g></g></g><g><g><g><path d="M768 157.75C766.438 157.75 765.188 156.5 765.188 154.938 765.188 153.375 766.438 152.125 768 152.125 769.562 152.125 770.812 153.375 770.812 154.938 770.812 156.5 769.562 157.75 768 157.75ZM768 148.375C765.844 148.375 763.812 149.438 762.594 151.25 761.375 153.031 761.125 155.312 761.906 157.344L764.875 163.906 767.438 169.281C767.531 169.5 767.75 169.625 768 169.625 768.25 169.625 768.469 169.5 768.562 169.281L771.125 163.906 774.094 157.344C774.875 155.312 774.625 153.031 773.406 151.25 772.188 149.438 770.156 148.375 768 148.375Z" fill="#FFFFFF"/></g></g></g><g><g><g><path d="M106.644 42.7281 100.523 40.4917 100.523 27.6615 106.644 25.0719 65.2104 9.76979 14.8313 27.426C10.0052 29.7802 9.8875 36.2542 9.8875 41.551 9.8875 43.3167 10.1229 45.0823 10.476 46.7302 6.47396 49.3198 6.35625 55.3229 6.35625 60.3844 6.35625 64.5042 7.29792 68.2708 9.8875 70.625 9.29896 72.626 9.65208 75.0979 9.65208 78.0406 9.65208 83.3375 11.0646 88.1635 15.7729 89.8115L48.4958 103.348 106.408 79.3354 100.287 77.099 100.287 64.151 106.408 61.5615 96.9917 58.0302 96.9917 46.7302 106.644 42.7281ZM16.2438 35.6656 48.9667 48.4958 95.9323 29.5448 95.9323 39.6677 48.9667 59.2073 16.2438 46.2594 16.2438 35.6656ZM95.6969 76.275 48.7313 95.6969 15.8906 82.749 15.8906 73.5677 45.2 85.574 95.8146 65.5635 95.6969 76.275ZM92.401 58.6188 45.4354 78.0406 12.7125 65.0927 12.7125 54.499 46.3771 67.9177 92.5188 48.6135 92.5188 58.6188Z" fill="#7A7259" transform="matrix(1.00885 0 0 1 674 483)"/></g></g></g><g><g><g><path d="M37.5667 19.775C38.2083 22.4583 35.4667 25.0833 32.7833 23.975 30.5083 23.1583 29.6333 20.5333 31.2083 18.2583 34.7667 13.5333 32.1417 6.125 26.25 3.55833 28.9333 8.63333 24.85 13.2417 22.4583 15.225 20.125 17.15 18.55 19.1917 18.0833 20.3583 15.6917 26.1333 19.25 31.675 21.7 33.0167 20.5917 30.5083 19.6 25.7833 23.9167 21.2917 23.9167 21.2917 22.6917 26.075 25.375 29.3417 28.0583 32.6667 28.0583 35.1167 28.0583 35.1167 32.2583 35.1167 36.2833 32.6083 37.975 28.4667 39.1417 25.9583 39.2583 22.05 37.5667 19.775" fill="#7A7259" transform="matrix(1.01786 0 0 1 627 316)"/><path d="M45.7333 46.3167 12.8917 32.9C11.55 32.4333 10.2083 32.9583 9.68333 34.1833L8.98333 35.8167C8.45833 36.9833 9.04167 38.3833 10.2667 38.85L19.4833 42.5833 10.3833 46.3167C9.15833 46.7833 8.575 48.1833 9.1 49.35L9.8 50.9833C10.325 52.15 11.6667 52.7333 12.8917 52.2667L28 46.0833 43.1083 52.2667C44.3333 52.7333 45.675 52.2083 46.2 50.9833L46.9 49.35C47.3667 48.1833 46.8417 46.7833 45.7333 46.3167" fill="#7A7259" transform="matrix(1.01786 0 0 1 627 316)"/><path d="M45.7333 38.85C46.9583 38.3833 47.5417 36.9833 47.0167 35.8167L46.3167 34.1833C45.7917 33.0167 44.45 32.4333 43.225 32.9L31.15 37.8583 39.6667 41.3583 45.7333 38.85Z" fill="#7A7259" transform="matrix(1.01786 0 0 1 627 316)"/></g></g></g><g><g><g><path d="M45.2667 24.6167 40.1917 28.35C39.6667 28.5833 39.0833 28.4667 38.7333 28 38.3833 27.5333 38.4417 26.95 38.7917 26.5417L43.925 22.8083C44.45 22.6333 44.975 22.8083 45.325 23.2167 45.6167 23.625 45.5583 24.2083 45.2667 24.6167L45.2667 24.6167ZM34.125 24.9667C34.0667 24.9667 34.0083 24.9083 33.95 24.9083 33.425 24.6167 33.1917 23.9167 33.4833 23.3917L37.6833 15.1083C38.0333 14.7 38.6167 14.5833 39.1417 14.8167 39.6083 15.05 39.9 15.6333 39.725 16.1583L35.525 24.3833C35.2333 24.9083 34.5917 25.1417 34.125 24.9667L34.125 24.9667ZM28.7 23.7417C28.2917 23.975 27.825 23.975 27.4167 23.7417 27.0083 23.5667 26.775 23.1 26.8333 22.6917L26.8333 13.475C26.775 13.0667 26.95 12.6 27.3583 12.425 27.7667 12.1917 28.2333 12.1917 28.6417 12.425 29.05 12.6 29.2833 13.0667 29.1667 13.475L29.1667 22.6333C29.225 23.1 29.05 23.5083 28.7 23.7417L28.7 23.7417ZM22.1667 24.9083C22.1083 24.9083 22.05 24.9667 21.9917 24.9667 21.4667 25.1417 20.8833 24.9083 20.5917 24.3833L16.3917 16.1583C16.275 15.6333 16.5083 15.05 16.975 14.8167 17.4417 14.5833 18.0833 14.7 18.4333 15.1083L22.6333 23.3917C22.925 23.975 22.6917 24.6167 22.1667 24.9083L22.1667 24.9083ZM17.5 28.1167C17.0917 28.6417 16.3917 28.7583 15.8667 28.35L10.7917 24.6167C10.3833 24.2083 10.3833 23.5667 10.675 23.1 11.025 22.6333 11.6083 22.5167 12.1333 22.75L17.2667 26.4833C17.7333 26.8917 17.85 27.5917 17.5 28.1167ZM49.9917 27.4167C50.225 26.8917 50.3417 26.3083 50.3417 25.725 50.3417 24.0333 49.35 22.4583 47.775 21.7 47.8333 21.4667 47.8333 21.175 47.8333 20.9417 47.8333 18.725 46.2583 16.8583 44.1 16.5083 43.8083 14.35 42.0583 12.7167 39.8417 12.6 39.2 10.85 37.5083 9.68333 35.6417 9.68333 35.175 9.68333 34.7083 9.74167 34.3 9.91667 32.7833 7.99167 29.9833 7.58333 28.0583 9.1 27.3 8.51667 26.3083 8.16667 25.375 8.16667 23.975 8.16667 22.6917 8.80833 21.8167 9.91667 21.35 9.8 20.9417 9.68333 20.475 9.68333 18.6083 9.68333 16.9167 10.85 16.275 12.6 14.1167 12.7167 12.3083 14.35 12.0167 16.5083 9.85833 16.8583 8.28333 18.725 8.225 20.9417 8.225 21.2333 8.225 21.4667 8.28333 21.7583 6.70833 22.5167 5.775 24.0917 5.71667 25.7833 5.71667 26.3667 5.83333 26.95 6.06667 27.475 5.13333 28.2917 4.66667 29.4583 4.66667 30.625 4.66667 33.25 7.23333 34.8833 8.63333 35.7583L13.9417 39.1417 13.9417 41.8833C13.9417 43.75 15.4583 44.8583 17.3833 44.8583L23.1583 44.8583C24.325 46.6083 26.425 47.775 28.0583 47.775 29.6917 47.775 31.675 46.6083 32.9 44.8583L38.7333 44.8583C40.6 44.8583 42.175 43.75 42.175 41.8833L42.175 39.1417 47.4833 35.7583C48.825 34.8833 51.3917 33.1917 51.3917 30.5667 51.3333 29.4 50.8667 28.2333 49.9917 27.4167Z" fill="#7A7259" transform="matrix(1.01786 0 0 1 860 309)"/></g></g></g></g></svg>