<svg width="1280" height="720" xmlns="http://www.w3.org/2000/svg" xmlns:xlink="http://www.w3.org/1999/xlink" overflow="hidden"><defs><linearGradient x1="355" y1="0" x2="355" y2="612" gradientUnits="userSpaceOnUse" spreadMethod="reflect" id="fill0"><stop offset="0" stop-color="#B3C3ED"/><stop offset="0.5" stop-color="#D2DCF5"/><stop offset="1" stop-color="#FFFFFF"/></linearGradient><clipPath id="clip1"><path d="M844.181 263.265 919.123 253.384 929.004 328.326 854.062 338.207Z" fill-rule="evenodd" clip-rule="evenodd"/></clipPath><clipPath id="clip2"><path d="M844.181 263.265 919.123 253.384 929.004 328.326 854.062 338.207Z" fill-rule="evenodd" clip-rule="evenodd"/></clipPath><clipPath id="clip3"><path d="M844.181 263.265 919.123 253.384 929.004 328.326 854.062 338.207Z" fill-rule="evenodd" clip-rule="evenodd"/></clipPath><clipPath id="clip4"><path d="M657.129 357.026 730.921 340.632 747.314 414.424 673.523 430.817Z" fill-rule="evenodd" clip-rule="evenodd"/></clipPath><clipPath id="clip5"><path d="M657.129 357.026 730.921 340.632 747.314 414.424 673.523 430.817Z" fill-rule="evenodd" clip-rule="evenodd"/></clipPath><clipPath id="clip6"><path d="M657.129 357.026 730.921 340.632 747.314 414.424 673.523 430.817Z" fill-rule="evenodd" clip-rule="evenodd"/></clipPath></defs><g><rect x="0" y="0" width="1280" height="720" fill="#FFFFFF"/><path d="M0 612 355 0 710 612Z" fill="url(#fill0)" fill-rule="evenodd" transform="matrix(1 0 0 -1 433 674)"/><g><g><g><path d="M787.5 66.3125C744.844 66.3125 710.312 100.844 710.312 143.5 710.312 186.156 744.844 220.688 787.5 220.688 830.156 220.688 864.688 186.156 864.688 143.5 864.688 100.844 830.156 66.3125 787.5 66.3125ZM787.5 212.562C749.516 212.562 718.438 181.484 718.438 143.5 718.438 105.516 749.516 74.4375 787.5 74.4375 797.453 74.4375 806.797 76.4688 815.328 80.3281L808.828 85.6094C808.016 86.2188 807.203 86.625 806.188 86.625L802.328 86.625C801.922 86.625 801.312 86.625 800.906 86.4219 800.906 86.4219 790.953 80.5312 785.266 80.5312 779.781 80.5312 770.844 83.9844 766.984 86.625 761.094 90.4844 767.391 92.3125 768.812 92.7188 769.016 92.7188 769.219 92.7188 769.219 92.7188L774.906 92.7188C776.328 92.7188 777.547 92.1094 778.359 90.8906L780.594 87.4375C781 86.8281 781.609 86.625 782.219 86.625L785.469 86.625 781.203 93.7344C780.188 95.5625 778.156 96.7812 775.922 96.7812L770.438 96.7812C769.625 96.7812 768.812 96.9844 768.203 97.3906L763.125 100.844 759.062 100.844C757.844 100.844 757.031 101.656 757.031 102.875L757.031 104.906C757.031 106.125 756.219 106.938 755 106.938L753.172 106.938C751.75 106.938 750.531 107.547 749.719 108.766L747.281 112.625C747.078 113.031 746.875 113.438 746.875 113.844L746.875 115.062C746.875 116.281 747.688 117.094 748.906 117.094L756.219 117.094C756.828 117.094 757.234 116.891 757.641 116.484L763.938 110.188C764.75 109.375 765.766 108.969 766.781 108.969L767.594 108.969C768.609 108.969 769.422 109.578 769.625 110.594L770.844 115.672C771.047 116.484 771.859 117.297 772.875 117.297L773.281 117.297C774.5 117.297 775.312 116.484 775.312 115.266L775.312 109.984C775.312 109.375 775.516 108.969 775.922 108.562L777.344 106.938 778.969 111.609C779.172 112.422 779.984 113.031 780.797 113.031L782.625 113.031C783.234 113.031 783.641 112.828 784.047 112.422L784.859 111.609C785.266 111.203 785.672 111 786.281 111L787.5 111C788.719 111 789.531 111.812 789.531 113.031L789.531 115.062C789.531 116.281 790.344 117.094 791.562 117.094L798.875 117.094C800.297 117.094 801.312 118.516 800.703 119.734L800.094 121.562C799.688 122.578 798.875 123.188 797.859 122.984L788.109 121.359C787.703 121.359 787.094 121.359 786.688 121.359L778.359 122.984C777.547 123.188 776.938 122.984 776.125 122.781 773.484 121.766 766.172 119.125 763.125 119.125 738.953 119.125 738.75 135.375 738.75 141.469 738.75 149.594 743.422 155.688 750.938 155.688 759.875 155.688 771.25 155.281 771.25 171.938L771.25 184.531C771.25 186.969 772.062 189.203 773.688 191.031L779.578 198.141C780.797 199.562 782.422 200.375 784.25 200.375L789.125 200.375C790.75 200.375 792.375 199.766 793.391 198.547L798.266 193.672C799.281 192.656 799.891 191.641 800.5 190.422L804.562 182.094C805.172 180.672 805.578 179.047 805.578 177.625L805.578 168.281C805.578 166.656 806.188 165.031 807.406 164.016L818.172 153.25C818.984 152.438 818.984 150.812 817.969 150.203 817.969 150.203 805.781 143.297 799.078 130.297 798.469 128.875 799.281 127.25 800.906 127.25L801.719 127.25 813.297 142.281C814.719 144.109 817.359 144.312 819.188 142.891L825.891 137.203C826.906 136.391 826.906 134.562 825.688 133.953L819.594 130.297C818.781 129.688 818.375 128.672 818.781 127.656L818.984 127.25C819.594 126.234 820.812 125.828 821.828 126.438L829.141 130.906C829.75 131.312 830.562 131.516 831.172 131.516L833.406 131.516C835.031 131.516 836.453 132.531 837.062 133.953L842.953 147.359C843.562 148.781 844.984 149.797 846.609 149.797L846.609 149.797C848.438 149.797 850.062 148.172 850.062 146.344L850.062 140.656C850.062 140.047 850.266 139.438 850.875 139.031L855.547 135.375C855.953 138.016 856.156 140.859 856.156 143.703 856.562 181.484 825.484 212.562 787.5 212.562Z" fill="#7A7259"/><path d="M750.938 100.844 750.938 102.875 752.969 102.875C754.188 102.875 755 102.062 755 100.844L755 98.8125 757.031 98.8125 757.031 95.5625C757.031 94.9531 756.828 94.5469 756.422 94.1406L754.391 92.1094C753.578 91.2969 752.359 91.2969 751.547 92.1094L748.297 95.3594C747.484 96.1719 747.484 97.3906 748.297 98.2031L750.938 100.844Z" fill="#7A7259"/></g></g></g><g><g><g><path d="M822 98.4167C820.021 98.4167 818.438 96.8333 818.438 94.8542 818.438 92.875 820.021 91.2917 822 91.2917 823.979 91.2917 825.562 92.875 825.562 94.8542 825.562 96.8333 823.979 98.4167 822 98.4167ZM822 86.5417C819.269 86.5417 816.696 87.8875 815.152 90.1833 813.608 92.4396 813.292 95.3292 814.281 97.9021L818.042 106.215 821.287 113.023C821.406 113.3 821.683 113.458 822 113.458 822.317 113.458 822.594 113.3 822.713 113.023L825.958 106.215 829.719 97.9021C830.708 95.3292 830.392 92.4396 828.848 90.1833 827.304 87.8875 824.731 86.5417 822 86.5417Z" fill="#FFFFFF"/></g></g></g><g><g><g><path d="M788.009 357.296 747.959 340.305 718.109 352.969 788.009 382.625 857.91 352.969 828.059 340.305 788.009 357.296Z" fill="#7A7259"/><path d="M788.009 291.375 718.109 321.031 788.009 350.688 857.91 321.031 788.009 291.375Z" fill="#7A7259"/></g></g></g><g><g><g><path d="M795.117 536.735C799.438 540.167 803.504 546.14 806.554 552.875L769.446 552.875C772.623 546.14 776.562 540.04 780.883 536.735 782.917 535.083 784.188 532.669 784.188 530 784.188 527.331 782.917 524.917 780.883 523.265 772.242 516.529 764.744 499.246 763.473 486.792L812.654 486.792C811.256 499.246 803.885 516.529 795.244 523.265 793.083 524.917 791.812 527.331 791.812 530 791.812 532.669 793.083 535.083 795.117 536.735ZM820.152 486.792 823.583 486.792 823.583 479.167 752.417 479.167 752.417 486.792 755.721 486.792C757.119 500.898 765.252 521.485 777.071 530 765.252 538.515 756.992 559.102 755.721 573.208L752.417 573.208 752.417 580.833 823.583 580.833 823.583 573.208 820.152 573.208C818.881 559.102 810.621 538.515 798.802 530 810.621 521.485 818.881 500.898 820.152 486.792Z" fill="#7A7259"/></g></g></g><path d="M0 0 898.298 0.000104987" stroke="#1E3283" stroke-width="4" stroke-miterlimit="8" stroke-dasharray="4 4" fill="none" fill-rule="evenodd" transform="matrix(-1 0 0 1 1035.3 249)"/><path d="M0 0 792.033 0.000104987" stroke="#1E3283" stroke-width="4" stroke-miterlimit="8" stroke-dasharray="4 4" fill="none" fill-rule="evenodd" transform="matrix(-1 0 0 1 929.033 432)"/><text font-family="Lato,Lato_MSFontService,sans-serif" font-weight="400" font-size="48" transform="translate(251.033 162)">Locality</text><text font-family="Lato,Lato_MSFontService,sans-serif" font-weight="400" font-size="48" transform="translate(207.533 355)">Assemblage</text><text font-family="Lato,Lato_MSFontService,sans-serif" font-weight="400" font-size="48" transform="translate(281.783 548)">Date</text><g clip-path="url(#clip1)"><g clip-path="url(#clip2)"><g clip-path="url(#clip3)"><path d="M884.457 297.666C884.912 301.115 882.484 304.28 879.035 304.734 875.586 305.189 872.421 302.762 871.966 299.313 871.512 295.864 873.939 292.699 877.388 292.244 880.837 291.789 884.002 294.217 884.457 297.666Z" fill="#7A7259"/><path d="M901.631 295.401C902.086 298.851 899.658 302.015 896.209 302.47 892.76 302.925 889.595 300.497 889.141 297.048 888.686 293.599 891.113 290.434 894.562 289.98 898.012 289.525 901.176 291.952 901.631 295.401Z" fill="#7A7259"/><path d="M891.451 307.767C892.009 308.469 891.892 309.489 891.191 310.046 890.962 310.228 890.688 310.345 890.399 310.384L886.698 310.872C885.81 310.986 884.997 310.359 884.883 309.47 884.845 309.18 884.887 308.886 885.003 308.618L886.448 305.298C886.801 304.479 887.751 304.102 888.569 304.455 888.815 304.561 889.03 304.726 889.196 304.936Z" fill="#7A7259"/><path d="M882.579 265.351C869.237 267.11 859.923 280.251 861.827 294.693 862.581 300.415 864.828 304.805 869.302 309.226L869.817 313.13C870.234 316.746 873.35 319.441 876.989 319.332L877.812 325.577C877.983 326.871 879.169 327.781 880.463 327.61L900.76 324.934C902.053 324.764 902.963 323.577 902.793 322.283L901.965 316.007C905.508 315.169 907.819 311.759 907.284 308.158L906.769 304.255C909.945 298.824 910.977 294.002 910.223 288.28 908.323 273.87 895.92 263.592 882.579 265.351ZM902.311 302.547C902.028 303.009 901.912 303.554 901.983 304.091L902.6 308.775C902.797 310.034 901.936 311.214 900.678 311.411 900.641 311.417 900.604 311.422 900.567 311.426L899.006 311.632C897.712 311.802 896.802 312.989 896.973 314.283L897.796 320.528 894.673 320.94 894.056 316.256 890.933 316.667 891.551 321.351 888.428 321.763 887.811 317.079 884.688 317.491 885.306 322.175 882.183 322.586 881.36 316.341C881.189 315.048 880.002 314.138 878.709 314.308L877.148 314.514C875.889 314.711 874.708 313.85 874.511 312.591 874.506 312.555 874.501 312.518 874.497 312.481L873.879 307.797C873.809 307.26 873.555 306.763 873.162 306.39 869.078 302.521 867.154 298.954 866.511 294.075 864.95 282.241 872.431 271.454 883.196 270.034 893.961 268.615 903.982 277.094 905.543 288.929 906.186 293.808 905.253 297.751 902.311 302.547Z" fill="#7A7259"/></g></g></g><g><g><g><path d="M709.973 281.607 710.74 273.429 705.318 276.527C704.886 276.774 704.62 277.232 704.62 277.729L704.62 280.253Z" fill="#7A7259"/><path d="M709.674 284.797 704.62 283.519 704.62 286.548 702.805 288.364C702.805 288.364 690.138 300.376 687.616 302.899 685.094 305.422 672.341 318.828 672.341 318.828L657.335 333.833C656.721 334.417 656.464 335.285 656.662 336.109 657.103 337.647 658.628 336.411 659.661 337.771 660.368 338.569 661.586 338.642 662.384 337.936 662.455 337.873 662.521 337.805 662.582 337.733 662.582 337.733 700.941 298.713 703.213 296.442L708.052 291.602 709.041 291.56Z" fill="#7A7259"/><path d="M712.781 285.582 712.237 291.421 716.227 291.247C716.772 291.223 717.252 290.882 717.453 290.376L718.762 287.103 718.768 287.093Z" fill="#7A7259"/><path d="M727.171 266.41 722.205 267.513C722.087 267.539 721.973 267.581 721.867 267.637L714.084 271.683 713.081 282.392 721.776 284.59 722.03 284.4C722.315 284.186 722.506 283.871 722.565 283.52L723.33 278.928C723.354 278.786 723.4 278.648 723.466 278.52L728.704 268.397C729.056 267.718 728.79 266.882 728.11 266.531 727.821 266.381 727.488 266.338 727.171 266.41Z" fill="#7A7259"/></g></g></g><g><g><g><path d="M876.547 363.625C864.438 363.625 854.672 373.391 854.672 385.5 854.672 389.328 855.688 392.922 857.406 396.047 859.047 394.328 860.844 392.609 862.797 390.734 867.719 386.125 873.5 381.438 878.344 378 878.656 377.766 878.969 377.609 879.359 377.609 880.219 377.609 880.922 378.312 880.922 379.172 880.922 379.719 880.688 380.109 880.297 380.422L880.297 380.422C873.344 385.422 864.125 393.156 857.875 400.188 857.875 400.188 857.016 401.125 856.625 401.594L856.625 401.594C853.109 405.734 850.766 409.484 850.766 412.141L855.453 412.141C855.453 410.422 858.188 406.672 862.328 402.219 866.156 405.5 871.078 407.453 876.547 407.453 880.453 407.453 884.203 406.438 887.406 404.562L887.406 404.562C904.125 395.266 906.234 378.156 906.234 358.938 906.234 358.938 888.031 363.938 876.547 363.625Z" fill="#7A7259"/></g></g></g><g clip-path="url(#clip4)"><g clip-path="url(#clip5)"><g clip-path="url(#clip6)"><path d="M685.757 409.548C686.228 411.67 688.331 413.009 690.454 412.537 692.577 412.065 693.915 409.962 693.444 407.84L692.133 401.942 684.764 405.079Z" fill="#7A7259"/><path d="M693.906 368.949C693.118 369.039 692.326 369.081 691.533 369.073 687.955 369.072 684.397 369.603 680.976 370.648 668.176 374.437 664.603 383.33 666.607 392.35L667.392 395.882 669.904 393.806 670.091 393.645C670.76 396.08 672.099 398.278 673.954 399.99L676.496 411.431C676.911 413.459 678.788 414.848 680.848 414.652 683.006 414.391 684.545 412.43 684.285 410.272 684.269 410.143 684.248 410.015 684.22 409.889L682.941 404.134 700.627 396.608 702.631 405.625C703.046 407.653 704.922 409.042 706.982 408.846 709.141 408.585 710.68 406.624 710.419 404.466 710.404 404.337 710.382 404.21 710.354 404.083L707.963 393.322C707.943 393.232 707.904 393.153 707.878 393.066L709.359 392.342 711.855 403.576C712.27 405.604 714.146 406.993 716.206 406.797 718.365 406.536 719.904 404.575 719.643 402.417 719.628 402.288 719.606 402.16 719.578 402.034L716.49 388.134 718.584 384.535C721.007 380.37 725.004 377.354 729.674 376.165L730.297 376.007C733.906 375.206 736.181 371.631 735.38 368.022L735.38 368.022C735.213 367.271 734.556 366.729 733.787 366.709L730.018 366.609 729.982 366.446C729.829 365.754 729.373 365.167 728.74 364.85 726.111 363.521 723.215 362.807 720.269 362.76 719.536 361.046 717.552 360.252 715.838 360.985 714.473 361.569 713.65 362.976 713.81 364.452L706.761 366.124 694.243 368.905Z" fill="#7A7259"/></g></g></g><g><g><g><path d="M794 178.417C792.021 178.417 790.438 176.833 790.438 174.854 790.438 172.875 792.021 171.292 794 171.292 795.979 171.292 797.562 172.875 797.562 174.854 797.562 176.833 795.979 178.417 794 178.417ZM794 166.542C791.269 166.542 788.696 167.887 787.152 170.183 785.608 172.44 785.292 175.329 786.281 177.902L790.042 186.215 793.287 193.023C793.406 193.3 793.683 193.458 794 193.458 794.317 193.458 794.594 193.3 794.713 193.023L797.958 186.215 801.719 177.902C802.708 175.329 802.392 172.44 800.848 170.183 799.304 167.887 796.731 166.542 794 166.542Z" fill="#FFFFFF"/></g></g></g><g><g><g><path d="M763 136.417C761.021 136.417 759.438 134.833 759.438 132.854 759.438 130.875 761.021 129.292 763 129.292 764.979 129.292 766.562 130.875 766.562 132.854 766.562 134.833 764.979 136.417 763 136.417ZM763 124.542C760.269 124.542 757.696 125.887 756.152 128.183 754.608 130.44 754.292 133.329 755.281 135.902L759.042 144.215 762.287 151.023C762.406 151.3 762.683 151.458 763 151.458 763.317 151.458 763.594 151.3 763.713 151.023L766.958 144.215 770.719 135.902C771.708 133.329 771.392 130.44 769.848 128.183 768.304 125.887 765.731 124.542 763 124.542Z" fill="#FFFFFF"/></g></g></g></g></svg>