<?xml version="1.0" encoding="UTF-8" standalone="no"?>
<!-- Created with Inkscape (http://www.inkscape.org/) -->

<svg
   width="14.142061mm"
   height="12.247458mm"
   viewBox="0 0 14.142061 12.247458"
   version="1.1"
   id="svg1"
   inkscape:version="1.3.2 (091e20e, 2023-11-25, custom)"
   sodipodi:docname="roadDB_logo.svg"
   inkscape:export-filename="roadDB_logo2.svg"
   inkscape:export-xdpi="375.37668"
   inkscape:export-ydpi="375.37668"
   xmlns:inkscape="http://www.inkscape.org/namespaces/inkscape"
   xmlns:sodipodi="http://sodipodi.sourceforge.net/DTD/sodipodi-0.dtd"
   xmlns="http://www.w3.org/2000/svg"
   xmlns:svg="http://www.w3.org/2000/svg">
  <sodipodi:namedview
     id="namedview1"
     pagecolor="#505050"
     bordercolor="#eeeeee"
     borderopacity="1"
     inkscape:showpageshadow="0"
     inkscape:pageopacity="0"
     inkscape:pagecheckerboard="0"
     inkscape:deskcolor="#505050"
     inkscape:document-units="mm"
     inkscape:zoom="9.0225589"
     inkscape:cx="41.063739"
     inkscape:cy="19.229578"
     inkscape:window-width="1600"
     inkscape:window-height="829"
     inkscape:window-x="-8"
     inkscape:window-y="-8"
     inkscape:window-maximized="1"
     inkscape:current-layer="layer1"
     inkscape:export-bgcolor="#ffffff00" />
  <defs
     id="defs1">
    <clipPath
       clipPathUnits="userSpaceOnUse"
       id="clipPath55">
      <g
         style="fill:#f9f9f9;stroke:#321e83;stroke-width:2.63507;stroke-dasharray:none;stroke-opacity:1"
         id="g55"
         transform="matrix(1.8245996,0,0,-1.8246007,21.738749,389.76323)">
        <path
           d="m 0,92.375 46.188,-80 h 92.378 l 46.185,80 -46.185,80 H 46.188 Z"
           id="path55"
           style="fill:#f9f9f9;stroke:#321e83;stroke-width:2.63507;stroke-dasharray:none;stroke-opacity:1" />
      </g>
    </clipPath>
    <clipPath
       clipPathUnits="userSpaceOnUse"
       id="clipPath24">
      <g
         id="g27">
        <g
           id="g26">
          <g
             id="g25">
            <path
               inkscape:connector-curvature="0"
               id="path24"
               d="M 0,425.197 H 566.929 V 0 H 0 Z" />
          </g>
        </g>
      </g>
    </clipPath>
    <clipPath
       id="clipPath1019"
       clipPathUnits="userSpaceOnUse">
      <path
         inkscape:connector-curvature="0"
         id="path1017"
         d="M 101.362,339.1 H 282.11 V 156.129 H 101.362 Z" />
    </clipPath>
    <clipPath
       id="clipPath1023"
       clipPathUnits="userSpaceOnUse">
      <path
         inkscape:connector-curvature="0"
         id="path1021"
         d="M 101.362,156.129 H 282.11 V 339.1 H 101.362 Z" />
    </clipPath>
    <clipPath
       clipPathUnits="userSpaceOnUse"
       id="clipPath21">
      <g
         id="g24">
        <g
           id="g23">
          <g
             id="g22">
            <path
               inkscape:connector-curvature="0"
               id="path21"
               d="M 0,425.197 H 566.929 V 0 H 0 Z" />
          </g>
        </g>
      </g>
    </clipPath>
  </defs>
  <g
     inkscape:label="Layer 1"
     inkscape:groupmode="layer"
     id="layer1"
     transform="translate(2.38125,-156.10417)">
    <g
       style="fill:#f9f9f9;stroke:#1e3283;stroke-width:2.63507;stroke-dasharray:none;stroke-opacity:1"
       id="g29"
       transform="matrix(0.07530637,0,0,0.07530638,-2.266682,155.27147)"
       inkscape:label="Hexagon">
      <path
         d="m 0,92.375 46.188,-80 h 92.378 l 46.185,80 -46.185,80 H 46.188 Z"
         id="path1"
         style="fill:#f9f9f9;stroke:#1e3283;stroke-width:2.63507;stroke-dasharray:none;stroke-opacity:1" />
    </g>
    <g
       id="g1">
      <g
         id="g28"
         transform="matrix(0.04127282,0,0,-0.0412728,-3.1639015,171.35809)"
         clip-path="url(#clipPath55)"
         inkscape:label="ROCEEH Logo">
        <g
           id="g1013"
           clip-path="url(#clipPath24)">
          <g
             id="g1015" />
          <g
             id="g1033">
            <g
               id="g1031"
               clip-path="url(#clipPath1019)">
              <g
                 id="g1029">
                <g
                   id="g1027"
                   clip-path="url(#clipPath1023)">
                  <path
                     inkscape:connector-curvature="0"
                     id="path1025"
                     style="fill:#7a7259;fill-opacity:1;fill-rule:nonzero;stroke:none"
                     d="m 280.558,335.694 c -0.354,0.266 -0.49,0.453 -1.323,-0.974 -0.486,-0.832 -9.651,-16.477 -18.146,-30.996 -0.496,0.153 -1.001,0.142 -1.918,0.234 -1.114,0.111 -3.055,1.326 -5.669,2.205 -1.486,0.499 -3.593,1.127 -4.882,1.732 -3.673,1.725 -3.813,2.813 -6.016,5.26 -2.203,2.447 -4.781,5.527 -6.704,7.03 -1.923,1.503 -2.972,2.028 -3.671,3.252 -0.699,1.224 0.072,3.985 0.072,3.985 0,0 4.35,-0.472 4.607,1.575 0.286,2.294 0.531,5.984 -2.658,8.17 -2.36,1.616 -5.042,2.265 -7.677,1.771 -2.52,-0.473 -3.555,-3.294 -3.661,-4.429 -0.178,-1.89 0.984,-3.366 1.613,-3.898 0.871,-0.734 1.629,-1.012 2.285,-1.47 0.655,-0.459 0.465,-0.459 0.407,-1.246 -0.058,-0.787 -0.145,-1.508 -0.736,-2.229 -0.589,-0.721 -1.704,-0.853 -2.491,-1.246 -0.786,-0.393 -3.078,-1.49 -3.991,-2.005 -2.905,-1.641 -3.94,-2.987 -6.497,-5.544 -2.557,-2.557 -5.89,-6.223 -7.938,-9.197 -2.301,-3.342 -5.47,-9.711 -6.865,-11.748 -0.394,-0.575 -2.016,-1.81 -2.394,-2.654 -0.407,-0.906 -0.419,-1.337 -0.284,-2.039 0.112,-0.582 2.983,-0.756 3.348,-0.27 0.936,1.248 0.559,2.65 1.377,4.428 0.832,1.811 3.72,5.026 5.102,6.803 1.377,1.77 4.65,6.247 5.764,7.689 1.115,1.442 3.166,2.826 4.346,3.744 1.18,0.918 2.673,1.981 3.591,2.309 0.917,0.328 1.664,0.562 1.795,0.089 0.131,-0.474 0.116,-1.969 -0.238,-3.536 -1.422,-6.295 -2.722,-11.838 -8.392,-19.082 -0.48,-0.615 -1.199,-1.032 -2.004,-1.389 -0.328,0.021 -0.603,0.031 -1.07,0.078 -1.815,0.185 -3.354,-0.525 -4.323,-1.607 -0.967,-1.08 -1.013,-1.874 -0.691,-2.856 0.096,-0.277 0.252,-0.475 0.391,-0.703 -0.002,-3.786 -0.701,-11.849 -0.964,-14.075 -0.437,-3.702 -0.89,-10.536 -1.87,-13.149 -0.544,-1.453 -1.758,-3.245 -3.291,-5.321 1.123,-3.214 2.21,-5.509 3.457,-5.507 1.51,1.864 3.204,3.995 4.437,5.834 0.753,1.124 2.014,2.482 2.306,3.104 1.036,2.2 0.662,4.711 0.946,6.713 0.475,3.357 1.358,17.184 1.358,17.184 0,0 2.855,-3.88 4.625,-5.846 1.771,-1.967 4.27,-5.178 5.355,-6.555 1.085,-1.377 3.782,-4.66 4.503,-5.905 0.722,-1.246 0.614,-3.758 1.639,-6.064 1.179,-2.654 2.088,-3.983 3.252,-5.791 -6.077,-10.443 -12.488,-21.368 -17.065,-28.889 -0.772,-1.267 0.865,-0.89 1.479,-0.017 3.169,4.502 14.262,23.094 15.528,24.939 0.134,0.195 0.615,1.007 1.24,2.074 1.139,-1.89 2.567,-4.489 4.601,-8.851 1.772,-3.799 5.696,-10.683 6.024,-12.126 0.327,-1.442 -0.886,-1.26 -0.532,-2.835 0.234,-1.04 1.237,-0.896 2.717,-1.11 1.795,-0.259 1.706,-0.076 4.765,-0.688 0.59,-0.118 2.958,-0.469 3.299,-0.382 0.81,0.208 0.951,1.588 -1.214,2.18 0,0 -1.069,0.333 -2.992,0.945 -1.435,0.458 -3.29,1.961 -3.465,2.835 -0.144,0.721 -6.622,19.29 -9.188,26.97 5.901,10.263 15.717,27.483 24.392,42.712 0.124,-0.097 0.268,-0.257 0.387,-0.327 0.874,-0.525 2.799,-0.56 3.779,0.979 0.531,0.833 -0.222,1.342 -1.796,2.706 -0.128,0.111 -0.206,0.154 -0.317,0.246 8.07,14.169 14.677,25.777 15.312,26.846 1.683,2.835 3.189,5.669 2.834,5.935 m -21.442,-35.343 c -5.32,-9.094 -10.069,-17.222 -11.806,-20.22 -2.011,-3.472 -6.713,-11.639 -12.16,-21.038 -0.099,0.315 -0.167,0.544 -0.2,0.676 -0.524,2.098 -1.677,4.61 -2.551,6.708 -0.874,2.099 -4.988,7.277 -7.539,10.236 -2.362,2.741 -7.736,9.764 -7.736,9.764 0,0 14.468,15.61 16.772,20.473 1.056,2.229 1.811,5.669 1.811,5.669 0,0 2.55,-1.543 5.48,-3.811 2.445,-1.893 5.271,-3.808 8.244,-5.102 2.971,-1.293 6.973,-1.474 8.196,-2.173 0.54,-0.308 1.024,-0.752 1.489,-1.182 m -64.039,-51.039 c 1.409,1.885 2.689,3.547 3.815,5.073 -1.531,4.384 -3.133,10.479 -5.329,15.066 -3.83,8.002 -7.746,19.578 -10.129,19.748 -2.383,0.17 -10.81,1.106 -13.619,2.298 -2.809,1.191 -1.702,1.447 -3.66,1.106 -1.958,-0.34 -2.213,-0.511 -1.617,-3.064 0.595,-2.553 -8.342,2.043 -11.066,3.064 -2.723,1.022 -3.32,0.682 -4.766,1.617 -1.448,0.937 -0.937,1.617 -0.171,2.81 0.766,1.191 0,2.468 -0.936,3.574 -0.936,1.107 -4.597,-0.34 -6.724,-0.34 -2.128,0 -9.704,-1.277 -11.747,-2.299 -2.043,-1.02 -7.065,0.937 -7.065,0.937 -4,-2.043 -5.277,-9.363 -10.725,-15.747 -5.447,-6.384 -8.937,-12.172 -8.426,-27.323 0.51,-15.151 13.448,-14.981 19.747,-15.832 6.299,-0.851 10.64,-0.17 13.619,0.34 2.979,0.511 8.622,-1.873 11.151,-5.192 2.528,-3.319 -0.341,-7.575 -0.936,-10.555 -0.597,-2.978 4.425,-5.021 6.213,-8.596 1.788,-3.576 1.703,-8.768 1.703,-12.003 0,-3.234 -1.958,-2.978 -2.724,-7.15 -0.767,-4.17 1.702,-7.405 2.724,-12.682 1.021,-5.277 4.341,-16.939 5.617,-20.004 1.277,-3.062 0.511,-5.191 2.979,-6.383 2.469,-1.191 15.622,5.192 18.726,8.682 3.105,3.49 5.704,9.533 7.406,11.236 1.702,1.702 2.384,3.149 2.128,4.936 -0.255,1.789 -1.362,3.746 -0.596,6.045 0.766,2.297 3.915,3.574 6.469,5.787 2.554,2.213 4.511,6.215 4.341,9.279 -0.17,3.063 -1.532,4.68 -2.298,7.916 -0.766,3.234 0.435,7.949 3.86,14.129 3.443,6.213 8.031,16.119 10.23,21.024 0.851,1.898 1.658,3.401 0.852,4.001 -1.576,1.172 -8.74,-1.787 -11.719,-1.958 -0.019,-0.001 -0.036,0.026 -0.055,0.026 -1.409,-1.738 -2.658,-3.247 -3.178,-4.015 -1.07,-1.583 -7.741,-8.68 -8.681,-11.161 -0.709,-1.87 -0.968,-3.617 -0.452,-5.335 0.377,-1.257 0.405,-1.935 0.491,-3.467 0.118,-2.105 -1.475,-2.248 -2.145,-2.183 -0.67,0.066 -1.079,3.248 -1.619,5.175 -0.332,1.187 -0.13,1.45 -0.822,3.31 -0.63,1.693 -0.559,3.579 0.472,4.271 0.763,0.513 2.18,0.527 2.835,1.398 2.54,3.379 3.677,9.567 5.827,12.441" />
                </g>
              </g>
            </g>
          </g>
        </g>
        <path
           inkscape:connector-curvature="0"
           id="path1035"
           style="fill:none;stroke:#7a7259;stroke-width:1.2;stroke-linecap:butt;stroke-linejoin:miter;stroke-miterlimit:10;stroke-dasharray:none;stroke-opacity:1"
           d="m 96.082,263.976 c -4.016,-2.43 -7.806,-4.5 -9.959,-7.336 -0.369,-0.831 1.913,-0.902 1.503,-1.954 -1.552,-2.148 -8.422,-3.334 -4.822,-7.333 2.52,-3.043 -1.516,-2.819 5.58,-0.086 2.182,0.838 1.917,-10.234 8.409,-4.974 1.45,1.075 0.75,4.09 1.921,6.849 M 56.67,233.291 c 0,0 0.597,-1.98 -2.472,-1.283 -3.069,0.698 -1.395,2.441 -1.976,3.603 -0.582,1.163 -0.233,2.046 0.581,2.812 0.814,0.768 3.72,2.279 4.65,1.14 0.93,-1.14 1.278,-1.046 0.814,-2.44 -0.465,-1.396 -1.562,-2.451 -1.597,-3.832 z m 6.803,-3.225 c 0,0 -2.371,-1.544 -2.139,-0.498 0.232,1.046 1.325,2.406 1.069,3.138 -0.256,0.732 0.093,2.208 1.139,2.905 1.047,0.697 1.396,1.685 0.698,2.441 -0.698,0.755 -1.279,1.86 -2.325,2.557 -1.046,0.697 -1.395,1.859 -1.046,3.311 0.349,1.454 1.627,2.035 2.673,2.035 1.047,0 2.907,-0.157 2.907,-1.279 -0.001,-0.949 0,-1.627 0.232,-2.673 0.233,-1.045 1.047,-3.021 1.977,-3.951 0.929,-0.929 2.208,-0.581 2.557,-2.79 0.349,-2.208 0.698,-3.602 -0.697,-3.951 -1.395,-0.349 -2.684,-1.387 -3.962,-1.387 -1.279,0 -1.914,0.78 -3.083,0.142 z m 155.72,-85.345 c -0.621,0.99 -2.221,0.347 -2.349,-0.35 -0.127,-0.697 0.616,-2.557 0.372,-3.603 -0.244,-1.045 -0.813,-2.44 0.233,-2.789 1.046,-0.348 3.488,-0.698 3.488,1.046 0,1.743 -0.465,1.86 -0.931,3.254 -0.464,1.395 -0.146,1.375 -0.813,2.442 z m 23.717,-10.996 c -0.977,0.232 -0.395,-0.047 -0.512,-1.477 -0.116,-1.43 2.43,-2.836 3.012,-5.043 0.581,-2.209 4.882,-6.975 5.347,-8.834 0.465,-1.859 4.418,-5.81 5.231,-6.855 0.814,-1.047 2.674,-0.582 3.372,-1.512 0.697,-0.93 1.744,-3.719 4.184,-4.299 2.442,-0.582 4.302,-0.93 7.557,-1.279 3.255,-0.35 5.94,-0.571 5.358,0.592 -0.581,1.162 -1.581,2.173 -3.115,2.941 -1.534,0.766 -1.186,1.592 -3.743,1.475 -2.558,-0.116 -5.07,0.902 -6.36,1.832 -1.291,0.929 -2.01,2.701 -3.056,5.257 -1.047,2.557 -11.719,14.004 -12.544,14.993 -0.825,0.988 -3.755,1.976 -4.731,2.209 z m 50.904,-27.184 c 0.432,-1.168 -1.987,-2.453 -3.73,-2.453 -1.744,0 -4.546,-0.348 -7.441,0 -2.894,0.35 -4.045,1.871 -2.894,2.336 1.15,0.465 4.313,1.047 5.754,0.697 1.441,-0.348 2.751,-0.404 4.067,-0.4 1.233,0.004 4.035,0.386 4.244,-0.18 z m -16.287,12.147 c -3.423,-0.534 -5.313,3.951 -6.243,5.345 -0.93,1.395 -2.209,4.649 -0.348,5.346 1.859,0.697 2.79,3.603 5.347,4.648 2.557,1.047 6.161,6.276 7.44,6.276 1.279,0 4.034,-0.987 4.034,-2.44 0,-1.453 -1.243,-2.974 -1.593,-5.033 -0.349,-2.057 1.395,-3.775 0.232,-5.24 -1.162,-1.465 -1.744,-4.371 -2.091,-6.113 -0.349,-1.745 -2.303,-2.092 -6.778,-2.789 z m -11.159,43.802 c -1.055,0 -2.697,1.871 -1.581,2.569 1.116,0.697 1.349,1.509 2.511,0.929 1.162,-0.582 1.86,-0.929 1.162,-1.976 -0.697,-1.045 -1.162,-1.522 -2.092,-1.522 z m 22.097,15.469 c -0.889,1.34 -2.406,-0.326 -2.639,-1.152 -0.232,-0.825 -0.813,-1.313 -0.115,-3.149 0.697,-1.836 0.209,-1.744 1.162,-2.556 0.953,-0.815 1.592,-0.256 1.465,0.976 -0.128,1.231 0.976,4.602 0.127,5.881 z m 1.767,-13.025 c -1.156,2.263 -2.603,0.035 -2.731,-0.698 -0.128,-0.732 -0.384,-2.5 -0.384,-4.3 0,-1.801 -0.603,-3.952 2.883,-4.649 3.488,-0.697 3.36,-0.349 4.65,-0.697 1.291,-0.35 1.627,1.183 0.698,1.764 -0.93,0.582 -2.732,0.464 -3.371,1.279 -0.639,0.812 -0.539,3.728 -0.752,4.674 -0.42,1.863 -0.568,1.795 -0.993,2.627 z m 3.605,-14.288 c -1.045,1.254 -2.499,0.118 -2.499,-0.929 0,-1.045 -0.059,-2.44 0.871,-2.824 0.93,-0.383 1.162,-0.313 1.047,-1.592 -0.117,-1.278 -2.093,-3.836 -1.047,-4.533 1.047,-0.698 3.604,0.697 3.988,0 0.383,-0.698 2.174,-4.416 2.754,-3.487 0.582,0.93 1.977,2.865 2.616,4.115 0.64,1.25 0.408,3.778 -0.872,4.254 -1.278,0.477 -2.453,0.51 -3.603,1.243 -1.151,0.732 -1.86,1.546 -2.442,2.359 -0.581,0.814 -0.232,0.697 -0.813,1.394 z m -0.735,-21.615 c 1.171,0.813 2.534,0 3.824,-0.349 1.291,-0.348 2.574,0.513 2.98,0.984 0.313,0.365 0.963,1.078 1.553,0.295 0.689,-0.916 -0.58,-4.184 -2.092,-3.836 -1.512,0.35 -3.701,-0.117 -3.547,-1.158 0.202,-1.367 1.164,-2.127 1.164,-2.658 0,-1.289 -0.755,-1.159 -0.291,-2.924 0.465,-1.768 2.465,-3.604 1.524,-4.301 -0.942,-0.697 -1.988,-0.93 -2.571,0 -0.58,0.93 -0.626,1.627 -1.521,3.254 -0.896,1.627 -1.965,2.115 -1.965,0.697 0,-1.418 1.278,-3.951 0,-4.299 -1.279,-0.349 -2.512,-0.511 -2.128,0.93 0.384,1.441 0,3.022 0,4.066 0,1.047 1.081,4.069 1.081,5.231 0,1.162 0.815,3.254 1.989,4.068 z m 35.494,-7.904 c 0.612,2.019 -4.534,2.906 -5.929,2.906 -1.395,0 -3.139,-0.209 -3.836,-1.556 -0.697,-1.35 -1.86,-2.756 -2.674,-1.698 -0.814,1.057 0,4.881 -1.628,5.231 -1.628,0.347 -4.068,0.929 -4.65,-0.233 -0.581,-1.164 -0.814,-1.558 0.232,-2.558 1.047,-0.998 1.431,-0.813 1.558,-2.557 0.129,-1.742 0.523,-1.51 2.628,-1.974 2.104,-0.465 4.999,-0.256 5.696,-1.581 0.697,-1.326 2.883,-1.826 1.906,-3.533 -0.976,-1.709 -3.533,-3.021 -1.209,-3.254 2.326,-0.232 3.139,-0.617 3.721,0.465 0.58,1.08 4.185,10.342 4.185,10.342 z M 194.5,171.855 c 6.142,-3.779 12.344,-24.105 15.823,-28.167 2.431,-2.842 5.302,9.128 5.693,14.019 0.657,8.574 10.373,15.059 14.044,13.365 5.7,-2.617 6.339,-18.228 11.794,-11.414 2.173,2.561 5.037,-7.424 5.281,-10.935 0.501,-7.184 -1.107,-3.799 3.029,-9.67 -0.031,0.041 -0.056,0.086 -0.075,0.135 1.031,-1.237 5.235,-12.637 8.689,-10.776 3.468,1.871 -9.786,18.91 -7.226,24.912 1.864,2.196 2.588,-2.34 5.341,-5.013 2.071,-2.01 1.102,-4.393 3.147,-5.231 3.837,-0.182 2.083,3.365 3.067,4.26 5.017,4.683 2.284,8.764 -2.91,13.916 -1.798,2.521 -1.373,4.41 -0.774,6.318 2.628,6.03 20.935,4.281 21.091,10.266 0.34,3.111 1.788,4.178 1.152,6.24 0.013,0.027 -5.205,9.848 -8.45,10.729 -4.678,1.273 1.868,5.511 1.676,6.558 -0.284,1.539 -8.79,-1.744 -9.395,2.112 -0.005,0.035 1.59,7 6.489,6.527 1.308,-0.436 -0.236,-3.856 0.7,-3.922 7.682,-0.555 7.915,-2.641 12.459,-9.119 1.688,-2.41 3.015,3.414 1.11,6.072 -1.15,1.615 -2.779,1.395 -3.095,4.953 -0.038,1.637 0.014,3.693 1.92,5.646 2.176,1.897 5.748,1.749 6.786,2.989 2.967,3.542 -0.887,14.324 -3.897,16.482 -2.186,1.57 -7.138,4.088 -8.469,4.094 -0.984,0.088 -2.827,-2.558 -3.828,-0.936 -2.826,7.449 1.937,9.067 11.254,8.122 2.982,-0.303 7.049,0.036 7.273,2.221 0.379,4.217 4.37,4.102 5.365,2.451 1.098,-2.196 4.754,-4.816 2.668,-5.271 -3.021,-0.652 10.914,-15.333 12.071,-14.743 4.956,3.492 -5.362,13.937 -6.854,16.521 -0.492,3.015 8.597,0.883 9.363,1.122 2.022,0.39 3.729,5.309 3.729,5.309 0.282,1.568 -1.821,1.756 -2.79,1.735 -0.92,0.121 -0.768,1.5 -1.043,1.878 -1.786,2.868 -4.77,9.046 -21.51,9.046 M 107.812,237.491 c -5.562,-3.585 -12.969,-3.061 -13.81,-2.94 -1.203,0.104 -3.102,0.65 -4.853,1.202 -2.14,0.904 -1.079,2.644 -1.558,4.318 -1.426,4.971 -1.801,-2.491 -1.863,-3.412 -0.291,-4.446 -3.143,-0.461 -4.655,-3.02 -1.569,-2.062 -2.084,-2.578 -6.271,-5.744 -2.771,-2.464 -8.955,-2.364 -9.255,-3.465 0,-1.519 9.761,-5.348 4.105,-9.493 -2.99,-1.489 -9.545,2.515 -12.202,-0.631 -1.358,-1.546 -0.037,-5.341 -1.093,-7.868 -3.041,-7.272 7.194,-6.159 10.73,-5.565 0.161,-0.055 4.662,2.043 4.429,4.717 -0.301,3.461 4.736,7.539 6.324,8.236 2.768,0.957 2.708,1.258 5.968,1.516 2.834,0 5.347,-4.998 10.694,-8.485 1.419,-0.923 0.754,-4.214 1.556,-4.187 1.546,-0.311 2.022,2.75 2.801,3.205 0.52,0.254 1.078,0.396 1.806,0.713 1.369,0.605 -7.67,5.869 -7.815,6.057 -6.045,4.417 -0.642,7.007 2.825,4.798 2.442,-1.828 4.058,-2.769 7.577,-6.02 1.229,-1.105 1.678,-3.609 3.488,-6.415 0.481,-0.906 0.698,-1.51 0.814,-3.172 -0.392,-2.729 4.297,1.088 4.301,2.127 0.02,0.805 -3.842,3.074 -2.79,3.951 1.888,1.106 15.471,3.065 6.24,-3.842 -5.218,-4.48 12.821,-3.086 14.22,-3.48 2.209,-0.58 1.627,-1.975 1.744,-4.881 -0.117,-2.906 -0.872,-2.906 -1,-6.275 0.5,-3.696 0.456,-6.737 3.441,-8.95 8.194,-5.558 15.564,-29.685 15.551,-29.683 0.611,-1.321 3.082,0.205 7.68,2.629"
           clip-path="url(#clipPath21)" />
      </g>
    </g>
    <text
       xml:space="preserve"
       style="font-size:2.11667px;line-height:2.11666px;font-family:Arial;-inkscape-font-specification:Arial;text-align:center;letter-spacing:0px;text-anchor:middle;fill:#1e3283;fill-opacity:1;stroke:#ffffff;stroke-width:0.529167;stroke-miterlimit:0;stroke-dasharray:none;stroke-opacity:1"
       x="4.6707306"
       y="166.84373"
       id="text55"
       inkscape:transform-center-y="-0.6614583"
       inkscape:label="roadDB"><tspan
         sodipodi:role="line"
         id="tspan55"
         style="font-style:normal;font-variant:normal;font-weight:normal;font-stretch:normal;font-size:2.11667px;line-height:2.11666px;font-family:Lato;-inkscape-font-specification:Lato;fill:#1e3283;fill-opacity:1;stroke:#ffffff;stroke-width:0.529167;stroke-dasharray:none;stroke-opacity:1"
         x="4.6707306"
         y="166.84373">roadDB</tspan></text>
    <text
       xml:space="preserve"
       style="font-size:2.11667px;line-height:2.11666px;font-family:Arial;-inkscape-font-specification:Arial;text-align:center;letter-spacing:0px;text-anchor:middle;fill:#1e3283;fill-opacity:1;stroke:none;stroke-width:0.198437;stroke-miterlimit:0;stroke-dasharray:none;stroke-opacity:1"
       x="4.6707306"
       y="166.31458"
       id="text55-7"
       inkscape:transform-center-y="-0.6614583"
       inkscape:label="roadDB"><tspan
         sodipodi:role="line"
         id="tspan55-1"
         style="font-style:normal;font-variant:normal;font-weight:normal;font-stretch:normal;font-size:2.11667px;line-height:2.11666px;font-family:Lato;-inkscape-font-specification:Lato;fill:#1e3283;fill-opacity:1;stroke:none;stroke-width:0.198437;stroke-opacity:1"
         x="4.6707306"
         y="166.31458">roadDB</tspan></text>
  </g>
</svg>
